<mxfile host="Electron" modified="2024-07-11T22:12:44.146Z" agent="Mozilla/5.0 (Macintosh; Intel Mac OS X 10_15_7) AppleWebKit/537.36 (KHTML, like Gecko) draw.io/24.6.4 Chrome/124.0.6377.207 Electron/30.0.6 Safari/537.36" etag="jAWJLoxHuUzFSb8DetaL" version="24.6.4" type="device">
  <diagram name="Архитектура с CDN для статического контента" id="-H_mtQnk-PTXWXPvYvuk">
    <mxGraphModel dx="954" dy="674" grid="1" gridSize="10" guides="1" tooltips="1" connect="1" arrows="1" fold="1" page="1" pageScale="1" pageWidth="1600" pageHeight="1200" math="0" shadow="0">
      <root>
        <mxCell id="0" />
        <mxCell id="1" parent="0" />
        
        <!-- Title -->
        <mxCell id="title" value="Архитектура с CDN для ускорения доставки статического контента" style="text;html=1;strokeColor=none;fillColor=none;align=center;verticalAlign=middle;whiteSpace=wrap;rounded=0;fontSize=16;fontStyle=1;" vertex="1" parent="1">
          <mxGeometry x="400" y="20" width="600" height="30" as="geometry" />
        </mxCell>
        
        <!-- Region Labels -->
        <mxCell id="region-europe" value="Европа" style="text;html=1;strokeColor=none;fillColor=#e1d5e7;align=center;verticalAlign=middle;whiteSpace=wrap;rounded=1;fontSize=14;fontStyle=1;" vertex="1" parent="1">
          <mxGeometry x="50" y="80" width="120" height="40" as="geometry" />
        </mxCell>
        
        <mxCell id="region-asia" value="Азия" style="text;html=1;strokeColor=none;fillColor=#ffe6cc;align=center;verticalAlign=middle;whiteSpace=wrap;rounded=1;fontSize=14;fontStyle=1;" vertex="1" parent="1">
          <mxGeometry x="200" y="80" width="120" height="40" as="geometry" />
        </mxCell>
        
        <mxCell id="region-america" value="Америка" style="text;html=1;strokeColor=none;fillColor=#d5e8d4;align=center;verticalAlign=middle;whiteSpace=wrap;rounded=1;fontSize=14;fontStyle=1;" vertex="1" parent="1">
          <mxGeometry x="350" y="80" width="120" height="40" as="geometry" />
        </mxCell>
        
        <mxCell id="region-africa" value="Африка" style="text;html=1;strokeColor=none;fillColor=#f8cecc;align=center;verticalAlign=middle;whiteSpace=wrap;rounded=1;fontSize=14;fontStyle=1;" vertex="1" parent="1">
          <mxGeometry x="500" y="80" width="120" height="40" as="geometry" />
        </mxCell>
        
        <!-- Clients from different regions -->
        <mxCell id="client-europe" value="Клиент&#xa;(Европа)" style="rounded=1;whiteSpace=wrap;html=1;fillColor=#e1d5e7;strokeColor=#9673a6;" vertex="1" parent="1">
          <mxGeometry x="50" y="160" width="100" height="60" as="geometry" />
        </mxCell>
        
        <mxCell id="client-asia" value="Клиент&#xa;(Азия)" style="rounded=1;whiteSpace=wrap;html=1;fillColor=#ffe6cc;strokeColor=#d79b00;" vertex="1" parent="1">
          <mxGeometry x="200" y="160" width="100" height="60" as="geometry" />
        </mxCell>
        
        <mxCell id="client-america" value="Клиент&#xa;(Америка)" style="rounded=1;whiteSpace=wrap;html=1;fillColor=#d5e8d4;strokeColor=#82b366;" vertex="1" parent="1">
          <mxGeometry x="350" y="160" width="100" height="60" as="geometry" />
        </mxCell>
        
        <mxCell id="client-africa" value="Клиент&#xa;(Африка)" style="rounded=1;whiteSpace=wrap;html=1;fillColor=#f8cecc;strokeColor=#b85450;" vertex="1" parent="1">
          <mxGeometry x="500" y="160" width="100" height="60" as="geometry" />
        </mxCell>
        
        <!-- CDN Edge Servers -->
        <mxCell id="cdn-europe" value="CDN Edge Server&#xa;(Европа)" style="rounded=1;whiteSpace=wrap;html=1;fillColor=#e1d5e7;strokeColor=#9673a6;fontSize=11;" vertex="1" parent="1">
          <mxGeometry x="50" y="280" width="120" height="60" as="geometry" />
        </mxCell>
        
        <mxCell id="cdn-asia" value="CDN Edge Server&#xa;(Азия)" style="rounded=1;whiteSpace=wrap;html=1;fillColor=#ffe6cc;strokeColor=#d79b00;fontSize=11;" vertex="1" parent="1">
          <mxGeometry x="200" y="280" width="120" height="60" as="geometry" />
        </mxCell>
        
        <mxCell id="cdn-america" value="CDN Edge Server&#xa;(Америка)" style="rounded=1;whiteSpace=wrap;html=1;fillColor=#d5e8d4;strokeColor=#82b366;fontSize=11;" vertex="1" parent="1">
          <mxGeometry x="350" y="280" width="120" height="60" as="geometry" />
        </mxCell>
        
        <mxCell id="cdn-africa" value="CDN Edge Server&#xa;(Африка)" style="rounded=1;whiteSpace=wrap;html=1;fillColor=#f8cecc;strokeColor=#b85450;fontSize=11;" vertex="1" parent="1">
          <mxGeometry x="500" y="280" width="120" height="60" as="geometry" />
        </mxCell>
        
        <!-- CDN Origin Server -->
        <mxCell id="cdn-origin" value="CDN Origin Server&#xa;(Основной сервер)" style="rounded=1;whiteSpace=wrap;html=1;fillColor=#fff2cc;strokeColor=#d6b656;fontSize=11;" vertex="1" parent="1">
          <mxGeometry x="700" y="280" width="140" height="60" as="geometry" />
        </mxCell>
        
        <!-- Static Content Storage -->
        <mxCell id="static-storage" value="Static Content Storage&#xa;(Изображения, CSS, JS)" style="shape=cylinder3;whiteSpace=wrap;html=1;boundedLbl=1;backgroundOutline=1;size=15;fillColor=#fff2cc;strokeColor=#d6b656;" vertex="1" parent="1">
          <mxGeometry x="900" y="280" width="120" height="60" as="geometry" />
        </mxCell>
        
        <!-- API Gateway -->
        <mxCell id="api-gateway" value="API Gateway&#xa;(Nginx/HAProxy)" style="rounded=1;whiteSpace=wrap;html=1;fillColor=#dae8fc;strokeColor=#6c8ebf;fontSize=12;" vertex="1" parent="1">
          <mxGeometry x="700" y="400" width="140" height="60" as="geometry" />
        </mxCell>
        
        <!-- Consul Servers -->
        <mxCell id="consul1" value="Consul Server 1" style="rounded=1;whiteSpace=wrap;html=1;fillColor=#e1d5e7;strokeColor=#9673a6;fontSize=11;" vertex="1" parent="1">
          <mxGeometry x="900" y="400" width="100" height="50" as="geometry" />
        </mxCell>
        
        <mxCell id="consul2" value="Consul Server 2" style="rounded=1;whiteSpace=wrap;html=1;fillColor=#e1d5e7;strokeColor=#9673a6;fontSize=11;" vertex="1" parent="1">
          <mxGeometry x="1020" y="400" width="100" height="50" as="geometry" />
        </mxCell>
        
        <mxCell id="consul3" value="Consul Server 3" style="rounded=1;whiteSpace=wrap;html=1;fillColor=#e1d5e7;strokeColor=#9673a6;fontSize=11;" vertex="1" parent="1">
          <mxGeometry x="1140" y="400" width="100" height="50" as="geometry" />
        </mxCell>
        
        <!-- API Instances -->
        <mxCell id="api-instance1" value="API Instance 1&#xa;(pymongo-api)" style="rounded=1;whiteSpace=wrap;html=1;fillColor=#d5e8d4;strokeColor=#82b366;fontSize=11;" vertex="1" parent="1">
          <mxGeometry x="900" y="500" width="100" height="60" as="geometry" />
        </mxCell>
        
        <mxCell id="api-instance2" value="API Instance 2&#xa;(pymongo-api)" style="rounded=1;whiteSpace=wrap;html=1;fillColor=#d5e8d4;strokeColor=#82b366;fontSize=11;" vertex="1" parent="1">
          <mxGeometry x="1020" y="500" width="100" height="60" as="geometry" />
        </mxCell>
        
        <mxCell id="api-instance3" value="API Instance 3&#xa;(pymongo-api)" style="rounded=1;whiteSpace=wrap;html=1;fillColor=#d5e8d4;strokeColor=#82b366;fontSize=11;" vertex="1" parent="1">
          <mxGeometry x="1140" y="500" width="100" height="60" as="geometry" />
        </mxCell>
        
        <!-- Redis Cache -->
        <mxCell id="redis-cache" value="Redis Cache" style="shape=cylinder3;whiteSpace=wrap;html=1;boundedLbl=1;backgroundOutline=1;size=15;fillColor=#ffe6cc;strokeColor=#d79b00;" vertex="1" parent="1">
          <mxGeometry x="1300" y="500" width="80" height="60" as="geometry" />
        </mxCell>
        
        <!-- Mongos Router -->
        <mxCell id="mongos-router" value="Mongos Router" style="rounded=1;whiteSpace=wrap;html=1;fillColor=#fff2cc;strokeColor=#d6b656;" vertex="1" parent="1">
          <mxGeometry x="900" y="700" width="120" height="60" as="geometry" />
        </mxCell>
        
        <!-- Config Server -->
        <mxCell id="config-server" value="Config Server" style="shape=cylinder3;whiteSpace=wrap;html=1;boundedLbl=1;backgroundOutline=1;size=15;fillColor=#e1d5e7;strokeColor=#9673a6;" vertex="1" parent="1">
          <mxGeometry x="1100" y="700" width="80" height="60" as="geometry" />
        </mxCell>
        
        <!-- Shard 1 -->
        <mxCell id="shard1-primary" value="Shard 1 Primary" style="shape=cylinder3;whiteSpace=wrap;html=1;boundedLbl=1;backgroundOutline=1;size=15;fillColor=#f8cecc;strokeColor=#b85450;" vertex="1" parent="1">
          <mxGeometry x="660" y="780" width="80" height="60" as="geometry" />
        </mxCell>
        
        <mxCell id="shard1-secondary1" value="Shard 1 Secondary 1" style="shape=cylinder3;whiteSpace=wrap;html=1;boundedLbl=1;backgroundOutline=1;size=15;fillColor=#f8cecc;strokeColor=#b85450;" vertex="1" parent="1">
          <mxGeometry x="660" y="860" width="80" height="60" as="geometry" />
        </mxCell>
        
        <mxCell id="shard1-secondary2" value="Shard 1 Secondary 2" style="shape=cylinder3;whiteSpace=wrap;html=1;boundedLbl=1;backgroundOutline=1;size=15;fillColor=#f8cecc;strokeColor=#b85450;" vertex="1" parent="1">
          <mxGeometry x="660" y="940" width="80" height="60" as="geometry" />
        </mxCell>
        
        <!-- Shard 2 -->
        <mxCell id="shard2-primary" value="Shard 2 Primary" style="shape=cylinder3;whiteSpace=wrap;html=1;boundedLbl=1;backgroundOutline=1;size=15;fillColor=#d5e8d4;strokeColor=#82b366;" vertex="1" parent="1">
          <mxGeometry x="1260" y="780" width="80" height="60" as="geometry" />
        </mxCell>
        
        <mxCell id="shard2-secondary1" value="Shard 2 Secondary 1" style="shape=cylinder3;whiteSpace=wrap;html=1;boundedLbl=1;backgroundOutline=1;size=15;fillColor=#d5e8d4;strokeColor=#82b366;" vertex="1" parent="1">
          <mxGeometry x="1260" y="860" width="80" height="60" as="geometry" />
        </mxCell>
        
        <mxCell id="shard2-secondary2" value="Shard 2 Secondary 2" style="shape=cylinder3;whiteSpace=wrap;html=1;boundedLbl=1;backgroundOutline=1;size=15;fillColor=#d5e8d4;strokeColor=#82b366;" vertex="1" parent="1">
          <mxGeometry x="1260" y="940" width="80" height="60" as="geometry" />
        </mxCell>
        
        <!-- Client to CDN connections -->
        <mxCell id="client-europe-to-cdn" style="edgeStyle=orthogonalEdgeStyle;rounded=0;orthogonalLoop=1;jettySize=auto;html=1;exitX=0.5;exitY=1;exitDx=0;exitDy=0;entryX=0.5;entryY=0;entryDx=0;entryDy=0;strokeColor=#9673a6;strokeWidth=3;" edge="1" parent="1" source="client-europe" target="cdn-europe">
          <mxGeometry relative="1" as="geometry" />
        </mxCell>
        
        <mxCell id="client-asia-to-cdn" style="edgeStyle=orthogonalEdgeStyle;rounded=0;orthogonalLoop=1;jettySize=auto;html=1;exitX=0.5;exitY=1;exitDx=0;exitDy=0;entryX=0.5;entryY=0;entryDx=0;entryDy=0;strokeColor=#d79b00;strokeWidth=3;" edge="1" parent="1" source="client-asia" target="cdn-asia">
          <mxGeometry relative="1" as="geometry" />
        </mxCell>
        
        <mxCell id="client-america-to-cdn" style="edgeStyle=orthogonalEdgeStyle;rounded=0;orthogonalLoop=1;jettySize=auto;html=1;exitX=0.5;exitY=1;exitDx=0;exitDy=0;entryX=0.5;entryY=0;entryDx=0;entryDy=0;strokeColor=#82b366;strokeWidth=3;" edge="1" parent="1" source="client-america" target="cdn-america">
          <mxGeometry relative="1" as="geometry" />
        </mxCell>
        
        <mxCell id="client-africa-to-cdn" style="edgeStyle=orthogonalEdgeStyle;rounded=0;orthogonalLoop=1;jettySize=auto;html=1;exitX=0.5;exitY=1;exitDx=0;exitDy=0;entryX=0.5;entryY=0;entryDx=0;entryDy=0;strokeColor=#b85450;strokeWidth=3;" edge="1" parent="1" source="client-africa" target="cdn-africa">
          <mxGeometry relative="1" as="geometry" />
        </mxCell>
        
        <!-- CDN Edge to Origin -->
        <mxCell id="cdn-europe-to-origin" style="edgeStyle=orthogonalEdgeStyle;rounded=0;orthogonalLoop=1;jettySize=auto;html=1;exitX=1;exitY=0.5;exitDx=0;exitDy=0;entryX=0;entryY=0.5;entryDx=0;entryDy=0;strokeColor=#9673a6;strokeWidth=2;dashed=1;" edge="1" parent="1" source="cdn-europe" target="cdn-origin">
          <mxGeometry relative="1" as="geometry" />
        </mxCell>
        
        <mxCell id="cdn-asia-to-origin" style="edgeStyle=orthogonalEdgeStyle;rounded=0;orthogonalLoop=1;jettySize=auto;html=1;exitX=1;exitY=0.5;exitDx=0;exitDy=0;entryX=0;entryY=0.5;entryDx=0;entryDy=0;strokeColor=#d79b00;strokeWidth=2;dashed=1;" edge="1" parent="1" source="cdn-asia" target="cdn-origin">
          <mxGeometry relative="1" as="geometry" />
        </mxCell>
        
        <mxCell id="cdn-america-to-origin" style="edgeStyle=orthogonalEdgeStyle;rounded=0;orthogonalLoop=1;jettySize=auto;html=1;exitX=1;exitY=0.5;exitDx=0;exitDy=0;entryX=0;entryY=0.5;entryDx=0;entryDy=0;strokeColor=#82b366;strokeWidth=2;dashed=1;" edge="1" parent="1" source="cdn-america" target="cdn-origin">
          <mxGeometry relative="1" as="geometry" />
        </mxCell>
        
        <mxCell id="cdn-africa-to-origin" style="edgeStyle=orthogonalEdgeStyle;rounded=0;orthogonalLoop=1;jettySize=auto;html=1;exitX=1;exitY=0.5;exitDx=0;exitDy=0;entryX=0;entryY=0.5;entryDx=0;entryDy=0;strokeColor=#b85450;strokeWidth=2;dashed=1;" edge="1" parent="1" source="cdn-africa" target="cdn-origin">
          <mxGeometry relative="1" as="geometry" />
        </mxCell>
        
        <!-- Origin to Static Storage -->
        <mxCell id="origin-to-storage" style="edgeStyle=orthogonalEdgeStyle;rounded=0;orthogonalLoop=1;jettySize=auto;html=1;exitX=1;exitY=0.5;exitDx=0;exitDy=0;entryX=0;entryY=0.5;entryDx=0;entryDy=0;strokeColor=#d6b656;strokeWidth=2;" edge="1" parent="1" source="cdn-origin" target="static-storage">
          <mxGeometry relative="1" as="geometry" />
        </mxCell>
        
        <!-- CDN Origin to API Gateway -->
        <mxCell id="origin-to-gateway" style="edgeStyle=orthogonalEdgeStyle;rounded=0;orthogonalLoop=1;jettySize=auto;html=1;exitX=0.5;exitY=1;exitDx=0;exitDy=0;entryX=0.5;entryY=0;entryDx=0;entryDy=0;strokeColor=#6c8ebf;strokeWidth=2;" edge="1" parent="1" source="cdn-origin" target="api-gateway">
          <mxGeometry relative="1" as="geometry" />
        </mxCell>
        
        <!-- API Gateway to API Instances -->
        <mxCell id="gateway-to-api1" style="edgeStyle=orthogonalEdgeStyle;rounded=0;orthogonalLoop=1;jettySize=auto;html=1;exitX=1;exitY=0.5;exitDx=0;exitDy=0;entryX=0;entryY=0.5;entryDx=0;entryDy=0;strokeColor=#82b366;strokeWidth=2;" edge="1" parent="1" source="api-gateway" target="api-instance1">
          <mxGeometry relative="1" as="geometry" />
        </mxCell>
        
        <mxCell id="gateway-to-api2" style="edgeStyle=orthogonalEdgeStyle;rounded=0;orthogonalLoop=1;jettySize=auto;html=1;exitX=1;exitY=0.5;exitDx=0;exitDy=0;entryX=0;entryY=0.5;entryDx=0;entryDy=0;strokeColor=#82b366;strokeWidth=2;" edge="1" parent="1" source="api-gateway" target="api-instance2">
          <mxGeometry relative="1" as="geometry">
            <Array as="points">
              <mxPoint x="880" y="430" />
              <mxPoint x="880" y="530" />
            </Array>
          </mxGeometry>
        </mxCell>
        
        <mxCell id="gateway-to-api3" style="edgeStyle=orthogonalEdgeStyle;rounded=0;orthogonalLoop=1;jettySize=auto;html=1;exitX=1;exitY=0.5;exitDx=0;exitDy=0;entryX=0;entryY=0.5;entryDx=0;entryDy=0;strokeColor=#82b366;strokeWidth=2;" edge="1" parent="1" source="api-gateway" target="api-instance3">
          <mxGeometry relative="1" as="geometry">
            <Array as="points">
              <mxPoint x="880" y="430" />
              <mxPoint x="880" y="530" />
            </Array>
          </mxGeometry>
        </mxCell>
        
        <!-- API Instances to Redis -->
        <mxCell id="api1-to-redis" style="edgeStyle=orthogonalEdgeStyle;rounded=0;orthogonalLoop=1;jettySize=auto;html=1;exitX=1;exitY=0.5;exitDx=0;exitDy=0;entryX=0;entryY=0.5;entryDx=0;entryDy=0;strokeColor=#d79b00;strokeWidth=2;" edge="1" parent="1" source="api-instance1" target="redis-cache">
          <mxGeometry relative="1" as="geometry" />
        </mxCell>
        
        <mxCell id="api2-to-redis" style="edgeStyle=orthogonalEdgeStyle;rounded=0;orthogonalLoop=1;jettySize=auto;html=1;exitX=1;exitY=0.5;exitDx=0;exitDy=0;entryX=0;entryY=0.5;entryDx=0;entryDy=0;strokeColor=#d79b00;strokeWidth=2;" edge="1" parent="1" source="api-instance2" target="redis-cache">
          <mxGeometry relative="1" as="geometry" />
        </mxCell>
        
        <mxCell id="api3-to-redis" style="edgeStyle=orthogonalEdgeStyle;rounded=0;orthogonalLoop=1;jettySize=auto;html=1;exitX=1;exitY=0.5;exitDx=0;exitDy=0;entryX=0;entryY=0.5;entryDx=0;entryDy=0;strokeColor=#d79b00;strokeWidth=2;" edge="1" parent="1" source="api-instance3" target="redis-cache">
          <mxGeometry relative="1" as="geometry" />
        </mxCell>
        
        <!-- API Instances to Mongos -->
        <mxCell id="api1-to-mongos" style="edgeStyle=orthogonalEdgeStyle;rounded=0;orthogonalLoop=1;jettySize=auto;html=1;exitX=0.5;exitY=1;exitDx=0;exitDy=0;entryX=0.5;entryY=0;entryDx=0;entryDy=0;" edge="1" parent="1" source="api-instance1" target="mongos-router">
          <mxGeometry relative="1" as="geometry" />
        </mxCell>
        
        <mxCell id="api2-to-mongos" style="edgeStyle=orthogonalEdgeStyle;rounded=0;orthogonalLoop=1;jettySize=auto;html=1;exitX=0.5;exitY=1;exitDx=0;exitDy=0;entryX=0.5;entryY=0;entryDx=0;entryDy=0;" edge="1" parent="1" source="api-instance2" target="mongos-router">
          <mxGeometry relative="1" as="geometry" />
        </mxCell>
        
        <mxCell id="api3-to-mongos" style="edgeStyle=orthogonalEdgeStyle;rounded=0;orthogonalLoop=1;jettySize=auto;html=1;exitX=0.5;exitY=1;exitDx=0;exitDy=0;entryX=0.5;entryY=0;entryDx=0;entryDy=0;" edge="1" parent="1" source="api-instance3" target="mongos-router">
          <mxGeometry relative="1" as="geometry" />
        </mxCell>
        
        <!-- Mongos to Config -->
        <mxCell id="mongos-to-config" style="edgeStyle=orthogonalEdgeStyle;rounded=0;orthogonalLoop=1;jettySize=auto;html=1;exitX=1;exitY=0.5;exitDx=0;exitDy=0;entryX=0;entryY=0.5;entryDx=0;entryDy=0;" edge="1" parent="1" source="mongos-router" target="config-server">
          <mxGeometry relative="1" as="geometry" />
        </mxCell>
        
        <!-- Mongos to Shards -->
        <mxCell id="mongos-to-shard1" style="edgeStyle=orthogonalEdgeStyle;rounded=0;orthogonalLoop=1;jettySize=auto;html=1;exitX=0;exitY=0.5;exitDx=0;exitDy=0;entryX=1;entryY=0.5;entryDx=0;entryDy=0;" edge="1" parent="1" source="mongos-router" target="shard1-primary">
          <mxGeometry relative="1" as="geometry" />
        </mxCell>
        
        <mxCell id="mongos-to-shard2" style="edgeStyle=orthogonalEdgeStyle;rounded=0;orthogonalLoop=1;jettySize=auto;html=1;exitX=1;exitY=0.5;exitDx=0;exitDy=0;entryX=0;entryY=0.5;entryDx=0;entryDy=0;" edge="1" parent="1" source="mongos-router" target="shard2-primary">
          <mxGeometry relative="1" as="geometry" />
        </mxCell>
        
        <!-- Replica Set Connections -->
        <mxCell id="shard1-replica-1" style="edgeStyle=orthogonalEdgeStyle;rounded=0;orthogonalLoop=1;jettySize=auto;html=1;exitX=0.5;exitY=1;exitDx=0;exitDy=0;entryX=0.5;entryY=0;entryDx=0;entryDy=0;strokeColor=#b85450;" edge="1" parent="1" source="shard1-primary" target="shard1-secondary1">
          <mxGeometry relative="1" as="geometry" />
        </mxCell>
        
        <mxCell id="shard1-replica-2" style="edgeStyle=orthogonalEdgeStyle;rounded=0;orthogonalLoop=1;jettySize=auto;html=1;exitX=0.5;exitY=1;exitDx=0;exitDy=0;entryX=0.5;entryY=0;entryDx=0;entryDy=0;strokeColor=#b85450;" edge="1" parent="1" source="shard1-secondary1" target="shard1-secondary2">
          <mxGeometry relative="1" as="geometry" />
        </mxCell>
        
        <mxCell id="shard2-replica-1" style="edgeStyle=orthogonalEdgeStyle;rounded=0;orthogonalLoop=1;jettySize=auto;html=1;exitX=0.5;exitY=1;exitDx=0;exitDy=0;entryX=0.5;entryY=0;entryDx=0;entryDy=0;strokeColor=#82b366;" edge="1" parent="1" source="shard2-primary" target="shard2-secondary1">
          <mxGeometry relative="1" as="geometry" />
        </mxCell>
        
        <mxCell id="shard2-replica-2" style="edgeStyle=orthogonalEdgeStyle;rounded=0;orthogonalLoop=1;jettySize=auto;html=1;exitX=0.5;exitY=1;exitDx=0;exitDy=0;entryX=0.5;entryY=0;entryDx=0;entryDy=0;strokeColor=#82b366;" edge="1" parent="1" source="shard2-secondary1" target="shard2-secondary2">
          <mxGeometry relative="1" as="geometry" />
        </mxCell>
        
        <!-- Consul Cluster Connections -->
        <mxCell id="consul1-to-2" style="edgeStyle=orthogonalEdgeStyle;rounded=0;orthogonalLoop=1;jettySize=auto;html=1;exitX=1;exitY=0.5;exitDx=0;exitDy=0;entryX=0;entryY=0.5;entryDx=0;entryDy=0;strokeColor=#9673a6;strokeWidth=2;" edge="1" parent="1" source="consul1" target="consul2">
          <mxGeometry relative="1" as="geometry" />
        </mxCell>
        
        <mxCell id="consul2-to-3" style="edgeStyle=orthogonalEdgeStyle;rounded=0;orthogonalLoop=1;jettySize=auto;html=1;exitX=1;exitY=0.5;exitDx=0;exitDy=0;entryX=0;entryY=0.5;entryDx=0;entryDy=0;strokeColor=#9673a6;strokeWidth=2;" edge="1" parent="1" source="consul2" target="consul3">
          <mxGeometry relative="1" as="geometry" />
        </mxCell>
        
        <!-- API Gateway to Consul -->
        <mxCell id="gateway-to-consul" style="edgeStyle=orthogonalEdgeStyle;rounded=0;orthogonalLoop=1;jettySize=auto;html=1;exitX=1;exitY=0.5;exitDx=0;exitDy=0;entryX=0;entryY=0.5;entryDx=0;entryDy=0;strokeColor=#9673a6;strokeWidth=2;dashed=1;" edge="1" parent="1" source="api-gateway" target="consul1">
          <mxGeometry relative="1" as="geometry" />
        </mxCell>
        
        <!-- API Instances to Consul -->
        <mxCell id="api1-to-consul" style="edgeStyle=orthogonalEdgeStyle;rounded=0;orthogonalLoop=1;jettySize=auto;html=1;exitX=0.5;exitY=0;exitDx=0;exitDy=0;entryX=0.5;entryY=1;entryDx=0;entryDy=0;strokeColor=#9673a6;strokeWidth=2;dashed=1;" edge="1" parent="1" source="api-instance1" target="consul1">
          <mxGeometry relative="1" as="geometry" />
        </mxCell>
        
        <mxCell id="api2-to-consul" style="edgeStyle=orthogonalEdgeStyle;rounded=0;orthogonalLoop=1;jettySize=auto;html=1;exitX=0.5;exitY=0;exitDx=0;exitDy=0;entryX=0.5;entryY=1;entryDx=0;entryDy=0;strokeColor=#9673a6;strokeWidth=2;dashed=1;" edge="1" parent="1" source="api-instance2" target="consul2">
          <mxGeometry relative="1" as="geometry" />
        </mxCell>
        
        <mxCell id="api3-to-consul" style="edgeStyle=orthogonalEdgeStyle;rounded=0;orthogonalLoop=1;jettySize=auto;html=1;exitX=0.5;exitY=0;exitDx=0;exitDy=0;entryX=0.5;entryY=1;entryDx=0;entryDy=0;strokeColor=#9673a6;strokeWidth=2;dashed=1;" edge="1" parent="1" source="api-instance3" target="consul3">
          <mxGeometry relative="1" as="geometry" />
        </mxCell>
        
        <!-- Labels -->
        <mxCell id="cdn-label" value="CDN (Content Delivery Network)" style="text;html=1;strokeColor=none;fillColor=none;align=center;verticalAlign=middle;whiteSpace=wrap;rounded=0;fontSize=14;fontStyle=1;" vertex="1" parent="1">
          <mxGeometry x="200" y="360" width="200" height="20" as="geometry" />
        </mxCell>
        
        <mxCell id="static-content-label" value="Статический контент" style="text;html=1;strokeColor=none;fillColor=none;align=center;verticalAlign=middle;whiteSpace=wrap;rounded=0;fontSize=12;fontStyle=1;" vertex="1" parent="1">
          <mxGeometry x="900" y="360" width="120" height="20" as="geometry" />
        </mxCell>
        
        <mxCell id="api-label" value="API и база данных" style="text;html=1;strokeColor=none;fillColor=none;align=center;verticalAlign=middle;whiteSpace=wrap;rounded=0;fontSize=12;fontStyle=1;" vertex="1" parent="1">
          <mxGeometry x="900" y="580" width="120" height="20" as="geometry" />
        </mxCell>
        
        <!-- Flow Labels -->
        <mxCell id="static-flow" value="Статический контент" style="text;html=1;strokeColor=none;fillColor=none;align=center;verticalAlign=middle;whiteSpace=wrap;rounded=0;fontSize=10;fontStyle=2;fontColor=#d6b656;" vertex="1" parent="1">
          <mxGeometry x="820" y="310" width="100" height="20" as="geometry" />
        </mxCell>
        
        <mxCell id="dynamic-flow" value="Динамический контент" style="text;html=1;strokeColor=none;fillColor=none;align=center;verticalAlign=middle;whiteSpace=wrap;rounded=0;fontSize=10;fontStyle=2;fontColor=#6c8ebf;" vertex="1" parent="1">
          <mxGeometry x="820" y="450" width="120" height="20" as="geometry" />
        </mxCell>
        
        <mxCell id="cdn-cache-flow" value="Кеширование" style="text;html=1;strokeColor=none;fillColor=none;align=center;verticalAlign=middle;whiteSpace=wrap;rounded=0;fontSize=10;fontStyle=2;fontColor=#9673a6;" vertex="1" parent="1">
          <mxGeometry x="320" y="310" width="80" height="20" as="geometry" />
        </mxCell>
        
        <!-- Legend -->
        <mxCell id="legend-title" value="Легенда" style="text;html=1;strokeColor=none;fillColor=none;align=center;verticalAlign=middle;whiteSpace=wrap;rounded=0;fontSize=12;fontStyle=1;" vertex="1" parent="1">
          <mxGeometry x="1400" y="80" width="80" height="20" as="geometry" />
        </mxCell>
        
        <mxCell id="legend-static" value="Статический контент" style="text;html=1;strokeColor=none;fillColor=#fff2cc;align=center;verticalAlign=middle;whiteSpace=wrap;rounded=1;fontSize=10;" vertex="1" parent="1">
          <mxGeometry x="1400" y="110" width="120" height="20" as="geometry" />
        </mxCell>
        
        <mxCell id="legend-dynamic" value="Динамический контент" style="text;html=1;strokeColor=none;fillColor=#dae8fc;align=center;verticalAlign=middle;whiteSpace=wrap;rounded=1;fontSize=10;" vertex="1" parent="1">
          <mxGeometry x="1400" y="140" width="120" height="20" as="geometry" />
        </mxCell>
        
        <mxCell id="legend-cache" value="Кеширование" style="text;html=1;strokeColor=none;fillColor=#ffe6cc;align=center;verticalAlign=middle;whiteSpace=wrap;rounded=1;fontSize=10;" vertex="1" parent="1">
          <mxGeometry x="1400" y="170" width="120" height="20" as="geometry" />
        </mxCell>
        
        <mxCell id="legend-database" value="База данных" style="text;html=1;strokeColor=none;fillColor=#e1d5e7;align=center;verticalAlign=middle;whiteSpace=wrap;rounded=1;fontSize=10;" vertex="1" parent="1">
          <mxGeometry x="1400" y="200" width="120" height="20" as="geometry" />
        </mxCell>
        
      </root>
    </mxGraphModel>
  </diagram>
</mxfile> 